<svg width="186" height="32" viewBox="0 0 186 32" fill="none" xmlns="http://www.w3.org/2000/svg">
<path d="M181.699 9.66274L184.291 8.95874C184.632 9.17207 184.899 9.50274 185.091 9.95074C185.304 10.3774 185.411 10.8574 185.411 11.3907C185.411 12.4361 184.92 13.9614 183.939 15.9667C182.958 17.9507 181.528 20.3401 179.651 23.1347C177.71 26.0147 176.088 28.0947 174.787 29.3747C173.507 30.6761 172.376 31.3267 171.395 31.3267C170.776 31.3267 170.243 31.2094 169.795 30.9747C169.347 30.7614 169.07 30.4841 168.963 30.1427C168.984 29.8014 169.048 29.4067 169.155 28.9587C169.262 28.5321 169.39 28.1374 169.539 27.7747H169.987C170.584 28.4361 171.224 28.7774 171.907 28.7987C172.611 28.8414 173.358 28.5534 174.147 27.9347C174.958 27.3374 175.811 26.4201 176.707 25.1827C176.622 23.6467 176.526 22.1747 176.419 20.7667C176.312 19.3587 176.184 17.9614 176.035 16.5747C175.886 15.1667 175.704 13.7161 175.491 12.2227C175.406 11.7321 175.267 11.4014 175.075 11.2307C174.904 11.0387 174.606 10.9427 174.179 10.9427C174.051 10.9427 173.816 10.9641 173.475 11.0067C173.134 11.0281 172.814 11.0601 172.515 11.1027L172.611 9.88674L177.347 9.11874L177.699 9.43874C177.934 11.1881 178.104 13.1081 178.211 15.1987C178.318 17.2681 178.36 19.6254 178.339 22.2707H178.659C179.64 20.7347 180.451 19.3587 181.091 18.1427C181.752 16.9054 182.254 15.8387 182.595 14.9427C182.936 14.0254 183.107 13.2894 183.107 12.7347C183.107 11.7321 182.595 10.8894 181.571 10.2067L181.699 9.66274Z" fill="white"/>
<path d="M160.216 31.5187C159.341 31.5187 158.499 31.3161 157.688 30.9107C156.899 30.5267 156.259 30.0254 155.768 29.4067C155.277 28.7881 155.053 28.1481 155.096 27.4867L155.16 27.3267C155.544 27.0281 156.035 26.6761 156.632 26.2707C157.229 25.8654 157.912 25.4174 158.68 24.9267C159.448 24.4361 160.269 23.9347 161.144 23.4227L161.176 23.1347C160.664 22.8361 160.259 22.3241 159.96 21.5987C159.683 20.8734 159.544 20.0201 159.544 19.0387C159.544 17.8441 159.747 16.6601 160.152 15.4867C160.557 14.2921 161.091 13.2147 161.752 12.2547C162.435 11.2947 163.192 10.5267 164.024 9.95072C164.856 9.37472 165.688 9.08672 166.52 9.08672L169.784 9.59872L170.136 8.79873L170.296 8.76672L171.288 9.24672L171.544 9.53473C171.032 10.4734 170.595 11.3481 170.232 12.1587C169.891 12.9481 169.613 13.6734 169.4 14.3347C169.208 14.9961 169.08 15.6147 169.016 16.1907C168.952 16.7241 168.899 17.3534 168.856 18.0787C168.813 18.8041 168.771 19.5507 168.728 20.3187C168.685 21.0654 168.643 21.7587 168.6 22.3987C168.579 23.0174 168.547 23.4867 168.504 23.8067C168.419 24.5534 168.184 25.2894 167.8 26.0147C167.437 26.7614 166.968 27.4654 166.392 28.1267C165.837 28.7881 165.219 29.3747 164.536 29.8867C163.853 30.3987 163.139 30.7934 162.392 31.0707C161.645 31.3694 160.92 31.5187 160.216 31.5187ZM161.272 29.6627C162.637 29.6627 163.8 29.1721 164.76 28.1907C165.72 27.2094 166.307 25.8654 166.52 24.1587L167.32 17.5347L167.064 17.4707C166.403 18.6867 165.827 19.6787 165.336 20.4467C164.867 21.1934 164.408 21.8014 163.96 22.2707C163.533 22.7401 163.064 23.1667 162.552 23.5507C161.891 24.0414 161.176 24.5214 160.408 24.9907C159.64 25.4814 158.979 25.9187 158.424 26.3027C157.891 26.7081 157.624 27.0174 157.624 27.2307C157.624 27.5934 157.805 27.9561 158.168 28.3187C158.552 28.7027 159.021 29.0227 159.576 29.2787C160.152 29.5347 160.717 29.6627 161.272 29.6627ZM162.968 21.0227C163.288 21.0227 163.725 20.6601 164.28 19.9347C164.856 19.1881 165.517 18.1321 166.264 16.7667C167.032 15.3801 167.864 13.7267 168.76 11.8067C168.333 11.5934 167.917 11.4121 167.512 11.2627C167.128 11.1134 166.765 11.0067 166.424 10.9427C166.104 10.8574 165.805 10.8147 165.528 10.8147C164.888 10.8147 164.28 11.1454 163.704 11.8067C163.128 12.4467 162.659 13.2787 162.296 14.3027C161.933 15.3267 161.752 16.4041 161.752 17.5347C161.752 18.4521 161.869 19.2627 162.104 19.9667C162.36 20.6707 162.648 21.0227 162.968 21.0227Z" fill="white"/>
<path d="M149.328 24.1907C148.283 24.1907 147.419 23.7214 146.736 22.7827C146.075 21.8227 145.744 20.5427 145.744 18.9427C145.744 17.6201 145.936 16.3614 146.32 15.1667C146.704 13.9721 147.237 12.9161 147.92 11.9987C148.603 11.0601 149.381 10.3241 150.256 9.79074C151.131 9.23607 152.048 8.95874 153.008 8.95874C154.139 8.95874 155.024 9.37474 155.664 10.2067C156.325 11.0387 156.656 12.2121 156.656 13.7267C156.656 15.1347 156.464 16.4681 156.08 17.7267C155.696 18.9854 155.163 20.1054 154.48 21.0867C153.819 22.0467 153.04 22.8041 152.144 23.3587C151.269 23.9134 150.331 24.1907 149.328 24.1907ZM150.608 22.4307C151.312 22.4307 151.941 22.1321 152.496 21.5347C153.051 20.9374 153.477 20.1161 153.776 19.0707C154.096 18.0041 154.256 16.8094 154.256 15.4867C154.256 14.0574 154.021 12.9374 153.552 12.1267C153.104 11.2947 152.475 10.8787 151.664 10.8787C150.981 10.8787 150.363 11.1667 149.808 11.7427C149.253 12.2974 148.816 13.0654 148.496 14.0467C148.197 15.0067 148.048 16.1054 148.048 17.3427C148.048 18.8361 148.283 20.0627 148.752 21.0227C149.243 21.9614 149.861 22.4307 150.608 22.4307Z" fill="white"/>
<path d="M140.528 21.8867C140.698 21.8867 140.933 21.7694 141.232 21.5347C141.53 21.3 142.138 20.788 143.056 19.9987L143.44 20.0307L143.856 20.7987C143.13 21.524 142.469 22.1427 141.872 22.6547C141.296 23.1667 140.794 23.5507 140.368 23.8067C139.962 24.0627 139.632 24.1907 139.376 24.1907C138.714 24.1907 138.384 23.8814 138.384 23.2627C138.384 23.1774 138.437 22.772 138.544 22.0467C138.65 21.3214 138.789 20.3934 138.96 19.2627C139.152 18.1107 139.354 16.852 139.568 15.4867C139.781 14.1214 139.994 12.7454 140.208 11.3587C140.421 9.97204 140.613 8.69204 140.784 7.51871C140.976 6.32404 141.125 5.33204 141.232 4.54271C141.338 3.73204 141.392 3.23071 141.392 3.03871C141.392 2.18538 140.944 1.75871 140.048 1.75871H138.736L138.928 0.542707C139.418 0.542707 139.952 0.532041 140.528 0.510708C141.125 0.489375 141.69 0.468042 142.224 0.446709C142.778 0.425376 143.226 0.404042 143.568 0.382708C143.909 0.361375 144.08 0.350708 144.08 0.350708L144.368 0.734709C144.368 0.734709 144.293 1.05471 144.144 1.69471C144.016 2.33471 143.834 3.22004 143.6 4.35071C143.365 5.46004 143.098 6.72937 142.8 8.15871C142.522 9.56671 142.234 11.06 141.936 12.6387C141.637 14.2174 141.36 15.7854 141.104 17.3427C140.848 18.9 140.624 20.372 140.432 21.7587L140.528 21.8867Z" fill="white"/>
<path d="M128.328 24.1907C127.283 24.1907 126.419 23.7214 125.736 22.7827C125.075 21.8227 124.744 20.5427 124.744 18.9427C124.744 17.6201 124.936 16.3614 125.32 15.1667C125.704 13.9721 126.237 12.9161 126.92 11.9987C127.603 11.0601 128.381 10.3241 129.256 9.79074C130.131 9.23607 131.048 8.95874 132.008 8.95874C133.139 8.95874 134.024 9.37474 134.664 10.2067C135.325 11.0387 135.656 12.2121 135.656 13.7267C135.656 15.1347 135.464 16.4681 135.08 17.7267C134.696 18.9854 134.163 20.1054 133.48 21.0867C132.819 22.0467 132.04 22.8041 131.144 23.3587C130.269 23.9134 129.331 24.1907 128.328 24.1907ZM129.608 22.4307C130.312 22.4307 130.941 22.1321 131.496 21.5347C132.051 20.9374 132.477 20.1161 132.776 19.0707C133.096 18.0041 133.256 16.8094 133.256 15.4867C133.256 14.0574 133.021 12.9374 132.552 12.1267C132.104 11.2947 131.475 10.8787 130.664 10.8787C129.981 10.8787 129.363 11.1667 128.808 11.7427C128.253 12.2974 127.816 13.0654 127.496 14.0467C127.197 15.0067 127.048 16.1054 127.048 17.3427C127.048 18.8361 127.283 20.0627 127.752 21.0227C128.243 21.9614 128.861 22.4307 129.608 22.4307Z" fill="white"/>
<path d="M118.053 24.1907C117.392 24.1907 117.061 23.8814 117.061 23.2627C117.061 22.8787 117.136 22.3561 117.285 21.6947C117.456 21.0334 117.658 20.3187 117.893 19.5507C118.149 18.7614 118.394 17.9721 118.629 17.1827C118.885 16.3721 119.088 15.6254 119.237 14.9427C119.408 14.2601 119.493 13.6947 119.493 13.2467C119.493 12.8627 119.386 12.5534 119.173 12.3187C118.981 12.0627 118.725 11.9347 118.405 11.9347C117.936 11.9347 117.36 12.3401 116.677 13.1507C115.994 13.9614 115.258 15.0814 114.469 16.5107C113.68 17.9401 112.901 19.6041 112.133 21.5027L112.261 17.0867L112.869 17.4387C113.978 15.2841 115.088 13.4814 116.197 12.0307C117.328 10.5587 118.384 9.53474 119.365 8.95874C120.048 8.95874 120.624 9.25741 121.093 9.85474C121.562 10.4307 121.797 11.1561 121.797 12.0307C121.797 12.5854 121.68 13.2787 121.445 14.1107C121.232 14.9214 120.965 15.7961 120.645 16.7347C120.346 17.6521 120.048 18.5481 119.749 19.4227C119.472 20.2974 119.258 21.0761 119.109 21.7587L119.205 21.8867C119.312 21.8867 119.429 21.8547 119.557 21.7907C119.706 21.7054 119.941 21.5241 120.261 21.2467C120.602 20.9694 121.093 20.5534 121.733 19.9987L122.117 20.0307L122.533 20.7987C121.786 21.5667 121.114 22.2067 120.517 22.7187C119.941 23.2094 119.45 23.5721 119.045 23.8067C118.64 24.0627 118.309 24.1907 118.053 24.1907ZM110.117 24.0947L109.893 23.8067C110.106 22.5481 110.32 21.2681 110.533 19.9667C110.746 18.6654 110.938 17.4494 111.109 16.3187C111.28 15.1667 111.408 14.2067 111.493 13.4387C111.6 12.6707 111.653 12.2014 111.653 12.0307C111.653 11.5827 111.546 11.2627 111.333 11.0707C111.12 10.8574 110.768 10.7507 110.277 10.7507H108.965L109.189 9.53474C109.722 9.53474 110.469 9.52407 111.429 9.50274C112.41 9.46007 113.392 9.40674 114.373 9.34274L114.661 9.72674C114.384 10.5161 114.106 11.4014 113.829 12.3827C113.573 13.3641 113.338 14.3347 113.125 15.2947C112.912 16.2547 112.752 17.1081 112.645 17.8547L112.613 19.5827L112.101 23.3587C112.101 23.4227 111.962 23.5187 111.685 23.6467C111.429 23.7534 111.141 23.8494 110.821 23.9347C110.522 24.0414 110.288 24.0947 110.117 24.0947Z" fill="white"/>
<path d="M103.07 21.8867C103.176 21.8867 103.304 21.844 103.454 21.7587C103.603 21.6734 103.838 21.5027 104.158 21.2467C104.478 20.9694 104.958 20.5534 105.598 19.9987L105.982 20.0307L106.398 20.7987C105.608 21.5667 104.915 22.2067 104.318 22.7187C103.742 23.2094 103.251 23.572 102.846 23.8067C102.462 24.0627 102.152 24.1907 101.918 24.1907C101.256 24.1907 100.926 23.8814 100.926 23.2627C100.926 22.8787 101 22.356 101.15 21.6947C101.32 21.0334 101.523 20.3187 101.758 19.5507C102.014 18.7614 102.259 17.972 102.494 17.1827C102.75 16.372 102.952 15.6254 103.102 14.9427C103.272 14.26 103.358 13.6947 103.358 13.2467C103.358 12.8627 103.251 12.5534 103.038 12.3187C102.846 12.0627 102.59 11.9347 102.27 11.9347C101.822 11.9347 101.267 12.308 100.606 13.0547C99.9658 13.78 99.2725 14.804 98.5258 16.1267C97.8005 17.428 97.0645 18.9427 96.3178 20.6707L95.9658 23.3587C95.9658 23.4227 95.8271 23.5187 95.5498 23.6467C95.2938 23.7534 95.0058 23.8494 94.6858 23.9347C94.3871 24.0414 94.1525 24.0947 93.9818 24.0947L93.7578 23.8067C93.7578 23.8067 93.8111 23.4547 93.9178 22.7507C94.0245 22.0467 94.1738 21.108 94.3658 19.9347C94.5578 18.7614 94.7605 17.46 94.9738 16.0307C95.1871 14.6014 95.4005 13.172 95.6138 11.7427C95.8271 10.292 96.0298 8.93738 96.2218 7.67871C96.4138 6.42004 96.5631 5.37471 96.6698 4.54271C96.7765 3.71071 96.8298 3.19871 96.8298 3.00671C96.8298 2.58004 96.7231 2.27071 96.5098 2.07871C96.3178 1.86538 95.9765 1.75871 95.4858 1.75871H94.1738L94.3658 0.542707C94.8565 0.542707 95.3898 0.532041 95.9658 0.510708C96.5631 0.489375 97.1285 0.468042 97.6618 0.446709C98.2165 0.425376 98.6645 0.404042 99.0058 0.382708C99.3471 0.361375 99.5178 0.350708 99.5178 0.350708L99.8058 0.734709C99.8058 0.734709 99.7311 1.05471 99.5818 1.69471C99.4325 2.31337 99.2405 3.17737 99.0058 4.28671C98.7711 5.37471 98.5045 6.63338 98.2058 8.06271C97.9285 9.47071 97.6405 10.9747 97.3418 12.5747C97.0645 14.1534 96.8085 15.7427 96.5738 17.3427L96.7338 17.4387C97.8431 15.284 98.9525 13.4814 100.062 12.0307C101.192 10.5587 102.248 9.53471 103.23 8.95871C103.912 8.95871 104.499 9.26804 104.99 9.88671C105.502 10.484 105.758 11.2094 105.758 12.0627C105.758 12.6174 105.64 13.3107 105.406 14.1427C105.192 14.9534 104.915 15.8174 104.574 16.7347C104.254 17.652 103.944 18.548 103.646 19.4227C103.347 20.2974 103.123 21.076 102.974 21.7587L103.07 21.8867Z" fill="white"/>
<path d="M88.4216 10.8467C87.7603 10.8467 87.1203 11.1881 86.5016 11.8707C85.883 12.5534 85.3816 13.4387 84.9976 14.5267C84.6136 15.6147 84.4216 16.7561 84.4216 17.9507C84.4216 19.2734 84.6243 20.3294 85.0296 21.1187C85.435 21.9081 85.9683 22.3027 86.6296 22.3027C87.2696 22.3027 87.9096 22.0467 88.5496 21.5347C89.211 21.0014 89.7336 20.3294 90.1176 19.5187L90.5656 19.5507L91.0456 20.3187C90.6403 21.0654 90.1496 21.7374 89.5736 22.3347C88.9976 22.9107 88.3896 23.3694 87.7496 23.7107C87.131 24.0307 86.5123 24.1907 85.8936 24.1907C84.7416 24.1907 83.835 23.7214 83.1736 22.7827C82.5123 21.8227 82.1816 20.5321 82.1816 18.9107C82.1816 17.6521 82.3843 16.4361 82.7896 15.2627C83.195 14.0681 83.739 13.0014 84.4216 12.0627C85.1256 11.1027 85.9043 10.3454 86.7576 9.79074C87.611 9.23607 88.4963 8.95874 89.4136 8.95874C89.9683 8.95874 90.4803 9.02274 90.9496 9.15074C91.4403 9.2574 91.835 9.41741 92.1336 9.63074L92.2936 9.98274L91.2056 12.1267L90.7576 12.2227C90.0963 11.3054 89.3176 10.8467 88.4216 10.8467Z" fill="white"/>
<path d="M80.4736 11.4547C80.4736 12.3507 80.2176 13.1614 79.7056 13.8867C79.1936 14.5907 78.383 15.2521 77.2736 15.8707C76.1643 16.4894 74.6923 17.1081 72.8576 17.7267C72.7723 19.0921 72.9323 20.1907 73.3376 21.0227C73.7643 21.8547 74.351 22.2707 75.0976 22.2707C75.7376 22.2707 76.3776 22.0254 77.0176 21.5347C77.6576 21.0227 78.191 20.3507 78.6176 19.5187L79.0656 19.5507L79.5456 20.3187C79.1403 21.0654 78.6496 21.7374 78.0736 22.3347C77.4976 22.9107 76.8896 23.3694 76.2496 23.7107C75.631 24.0307 75.0123 24.1907 74.3936 24.1907C73.2416 24.1907 72.335 23.7214 71.6736 22.7827C71.0123 21.8227 70.6816 20.5321 70.6816 18.9107C70.6816 17.6734 70.8843 16.4681 71.2896 15.2947C71.7163 14.1001 72.271 13.0334 72.9536 12.0947C73.6576 11.1347 74.4363 10.3774 75.2896 9.82274C76.1643 9.24674 77.0496 8.95874 77.9456 8.95874C78.7563 8.95874 79.375 9.17207 79.8016 9.59874C80.2496 10.0254 80.4736 10.6441 80.4736 11.4547ZM76.9216 10.8147C76.367 10.8147 75.8123 11.0707 75.2576 11.5827C74.7243 12.0734 74.255 12.7454 73.8496 13.5987C73.4443 14.4307 73.1563 15.3587 72.9856 16.3827C74.8416 15.8067 76.175 15.1987 76.9856 14.5587C77.7963 13.9187 78.2016 13.1614 78.2016 12.2867C78.2016 11.3054 77.775 10.8147 76.9216 10.8147Z" fill="white"/>
<path d="M63.4223 4.57466C62.1849 4.63866 61.2143 4.71333 60.5103 4.79866C59.8063 4.86266 59.2729 5.02266 58.9103 5.27866C58.5689 5.51333 58.2916 5.88666 58.0783 6.39866C57.8863 6.91066 57.6729 7.63599 57.4383 8.57466L56.0303 8.70266C56.0303 8.70266 56.0623 8.55333 56.1263 8.25466C56.2116 7.93466 56.3076 7.51866 56.4143 7.00666C56.5423 6.49466 56.6703 5.91866 56.7983 5.27866C56.9263 4.63866 57.0436 3.98799 57.1503 3.32666L57.4703 3.10266L59.9023 3.45466H69.4383L72.0623 3.10266L72.3183 3.32666C72.2543 3.98799 72.2009 4.63866 72.1583 5.27866C72.1369 5.89733 72.1263 6.46266 72.1263 6.97466C72.1263 7.46533 72.1263 7.85999 72.1263 8.15866C72.1263 8.43599 72.1263 8.57466 72.1263 8.57466L70.7183 8.70266C70.6969 7.74266 70.6436 6.99599 70.5583 6.46266C70.4943 5.92933 70.3129 5.54533 70.0143 5.31066C69.7369 5.05466 69.2783 4.88399 68.6383 4.79866C67.9983 4.71333 67.1129 4.63866 65.9823 4.57466C65.8756 5.06533 65.7369 5.77999 65.5663 6.71866C65.4169 7.65733 65.2463 8.70266 65.0543 9.85466C64.8623 11.0067 64.6703 12.1907 64.4783 13.4067C64.3076 14.6013 64.1476 15.732 63.9983 16.7987C63.8489 17.844 63.7209 18.7293 63.6143 19.4547C63.5289 20.18 63.4863 20.6493 63.4863 20.8627C63.4863 21.4387 63.6036 21.8547 63.8383 22.1107C64.0729 22.3667 64.4569 22.4947 64.9903 22.4947C65.5449 22.4947 65.9716 22.484 66.2703 22.4627C66.5903 22.42 66.7503 22.3987 66.7503 22.3987L66.8143 22.5267L66.3663 23.9027C66.3663 23.9027 66.2063 23.892 65.8863 23.8707C65.5663 23.8707 65.1609 23.86 64.6703 23.8387C64.2009 23.8387 63.7103 23.828 63.1983 23.8067C62.6863 23.8067 62.2489 23.8067 61.8863 23.8067C61.5236 23.8067 61.1076 23.8067 60.6383 23.8067C60.1689 23.828 59.7103 23.8493 59.2623 23.8707C58.8356 23.892 58.4729 23.9027 58.1743 23.9027C57.8969 23.924 57.7583 23.9347 57.7583 23.9347L58.1423 22.6547C58.8676 22.5907 59.4436 22.5053 59.8703 22.3987C60.2969 22.2707 60.6169 22.0787 60.8303 21.8227C61.0649 21.5667 61.2463 21.1827 61.3743 20.6707C61.5023 20.1587 61.6196 19.476 61.7263 18.6227L63.4223 4.57466Z" fill="white"/>
<path d="M45.463 24.1907C43.5003 24.1907 41.8043 23.7853 40.375 22.9747C38.967 22.164 37.879 21.0013 37.111 19.4867C36.343 17.972 35.959 16.18 35.959 14.1107C35.959 12.404 36.215 10.868 36.727 9.50266C37.2603 8.116 38.0176 6.932 38.999 5.95066C39.9803 4.96933 41.1536 4.212 42.519 3.67866C43.9056 3.14533 45.4523 2.87866 47.159 2.87866C47.8203 2.87866 48.503 2.92133 49.207 3.00666C49.9323 3.092 50.5936 3.188 51.191 3.29466C51.7883 3.40133 52.279 3.49733 52.663 3.58266C53.047 3.64666 53.239 3.67866 53.239 3.67866L53.431 4.09466C53.431 4.09466 53.367 4.36133 53.239 4.89466C53.1323 5.428 53.015 6.15333 52.887 7.07066C52.759 7.96666 52.6523 8.98 52.567 10.1107L49.527 10.3027C49.527 10.3027 49.5376 10.132 49.559 9.79066C49.5803 9.428 49.591 9.044 49.591 8.63866C49.591 7.67866 49.303 6.98533 48.727 6.55866C48.151 6.132 47.2443 5.91866 46.007 5.91866C44.8977 5.91866 43.9483 6.18533 43.159 6.71866C42.391 7.252 41.8043 8.04133 41.399 9.08666C41.015 10.132 40.823 11.4333 40.823 12.9907C40.823 14.74 41.0363 16.2333 41.463 17.4707C41.911 18.708 42.5403 19.6573 43.351 20.3187C44.1616 20.9587 45.1216 21.2787 46.231 21.2787C47.4043 21.2787 48.3216 20.9267 48.983 20.2227C49.6443 19.5187 50.103 18.3773 50.359 16.7987L53.431 16.6067C53.431 16.6067 53.399 16.788 53.335 17.1507C53.2923 17.5133 53.2283 17.9933 53.143 18.5907C53.079 19.1667 53.0043 19.8067 52.919 20.5107C52.855 21.1933 52.8123 21.8653 52.791 22.5267L52.471 22.9107C52.471 22.9107 52.1616 23.0173 51.543 23.2307C50.9243 23.444 50.0817 23.6573 49.015 23.8707C47.9697 24.084 46.7856 24.1907 45.463 24.1907Z" fill="white"/>
<path d="M19.4385 24.1267L19.6945 21.9827C20.5051 21.8547 21.0598 21.5987 21.3585 21.2147C21.6571 20.8307 21.8065 20.1694 21.8065 19.2307L21.8385 6.9747C21.8385 6.31336 21.7638 5.87603 21.6145 5.6627C21.4651 5.42803 21.1558 5.3107 20.6865 5.3107C20.4945 5.3107 20.2811 5.32136 20.0465 5.3427C19.8118 5.3427 19.6945 5.3427 19.6945 5.3427L19.5345 5.0867L19.7905 3.2307C20.0465 3.2307 20.4198 3.24136 20.9105 3.2627C21.4011 3.2627 21.9238 3.2627 22.4785 3.2627C23.0545 3.2627 23.5878 3.2627 24.0785 3.2627C24.4411 3.2627 24.8891 3.25203 25.4225 3.2307C25.9771 3.20936 26.5211 3.18803 27.0545 3.1667C27.5878 3.14536 28.0358 3.12403 28.3985 3.1027C28.7611 3.06003 28.9425 3.0387 28.9425 3.0387L28.7185 5.2467C27.9931 5.33203 27.4598 5.46003 27.1185 5.6307C26.7985 5.78003 26.5851 6.0147 26.4785 6.3347C26.3931 6.63336 26.3291 7.0707 26.2865 7.6467C26.2011 8.7987 26.1265 10.0467 26.0625 11.3907C26.0198 12.7134 25.9878 14.0574 25.9665 15.4227C25.9451 16.788 25.9345 18.1107 25.9345 19.3907C25.9345 19.924 25.9771 20.34 26.0625 20.6387C26.1691 20.916 26.3718 21.108 26.6705 21.2147C26.9691 21.3 27.3958 21.3427 27.9505 21.3427C28.7185 21.3427 29.3478 21.2894 29.8385 21.1827C30.3291 21.0547 30.7131 20.82 30.9905 20.4787C31.2891 20.116 31.5238 19.6254 31.6945 19.0067C31.8651 18.3667 32.0145 17.5347 32.1425 16.5107L34.7345 16.2227L34.9585 16.5427C34.9585 16.5427 34.9051 16.884 34.7985 17.5667C34.7131 18.2494 34.6065 19.1347 34.4785 20.2227C34.3505 21.3107 34.2331 22.484 34.1265 23.7427L33.8065 24.0627C33.8065 24.0627 33.5185 24.052 32.9425 24.0307C32.3665 24.0094 31.6198 23.9774 30.7025 23.9347C29.8065 23.9134 28.8358 23.8814 27.7905 23.8387C26.7665 23.8174 25.7851 23.8067 24.8465 23.8067C23.9291 23.8067 23.0545 23.828 22.2225 23.8707C21.3905 23.9347 20.7185 23.988 20.2065 24.0307C19.6945 24.0947 19.4385 24.1267 19.4385 24.1267Z" fill="white"/>
<path d="M0.21582 24.1267L0.43982 21.9827C1.33582 21.8547 1.94382 21.5987 2.26382 21.2147C2.58382 20.8307 2.74382 20.1693 2.74382 19.2307L2.77582 7.03866C2.77582 6.33466 2.71182 5.876 2.58382 5.66266C2.45582 5.428 2.17849 5.31066 1.75182 5.31066C1.62382 5.31066 1.46382 5.32133 1.27182 5.34266C1.07982 5.34266 0.909154 5.35333 0.75982 5.37466L0.56782 5.08666L0.82382 3.16666C1.31449 3.16666 1.90115 3.17733 2.58382 3.19866C3.26649 3.22 3.95982 3.24133 4.66382 3.26266C5.38915 3.26266 6.03982 3.26266 6.61582 3.26266C8.15182 3.26266 9.52782 3.252 10.7438 3.23066C11.9598 3.20933 13.0265 3.16666 13.9438 3.10266C14.8825 3.03866 15.6825 2.964 16.3438 2.87866L16.5998 3.23066C16.4932 3.764 16.3865 4.372 16.2798 5.05466C16.1732 5.73733 16.0878 6.43066 16.0238 7.13466C15.9598 7.81733 15.9065 8.44666 15.8638 9.02266L13.0158 9.21466C13.0372 9.044 13.0478 8.83066 13.0478 8.57466C13.0692 8.29733 13.0798 8.084 13.0798 7.93466C13.0798 7.48666 13.0372 7.13466 12.9518 6.87866C12.8665 6.60133 12.6852 6.39866 12.4078 6.27066C12.1305 6.12133 11.7145 6.02533 11.1598 5.98266C10.6265 5.91866 9.90115 5.88666 8.98382 5.88666C8.47182 5.88666 8.08782 5.908 7.83182 5.95066C7.59715 5.99333 7.44782 6.08933 7.38382 6.23866C7.31982 6.388 7.27715 6.63333 7.25582 6.97466L6.93582 13.9187L6.83982 19.4227C6.83982 19.9987 6.88249 20.4253 6.96782 20.7027C7.07449 20.9587 7.26649 21.1293 7.54382 21.2147C7.84249 21.3 8.30115 21.3427 8.91982 21.3427C9.92249 21.3427 10.7332 21.3 11.3518 21.2147C11.9705 21.1293 12.4505 20.9693 12.7918 20.7347C13.1332 20.4787 13.3892 20.1053 13.5598 19.6147C13.7305 19.124 13.8692 18.484 13.9758 17.6947L16.5998 17.4707L16.8238 17.7587C16.6745 18.548 16.5145 19.4973 16.3438 20.6067C16.1945 21.716 16.0665 22.74 15.9598 23.6787L15.6398 24.0307C14.4878 23.988 13.2825 23.9453 12.0238 23.9027C10.7865 23.8813 9.61315 23.86 8.50382 23.8387C7.39449 23.8173 6.45582 23.8067 5.68782 23.8067C4.91982 23.8067 4.02382 23.828 2.99982 23.8707C1.97582 23.9347 1.04782 24.02 0.21582 24.1267ZM6.51982 14.9107L6.77582 11.9987C6.92515 11.9987 7.19182 11.9987 7.57582 11.9987C7.95982 11.9987 8.37582 12.0093 8.82382 12.0307C9.27182 12.0307 9.67715 12.0307 10.0398 12.0307C10.3812 12.0307 10.9252 11.9987 11.6718 11.9347C12.4185 11.8707 13.1118 11.8067 13.7518 11.7427L14.0078 12.0307L13.5598 14.7507C13.0052 14.7293 12.3118 14.708 11.4798 14.6867C10.6478 14.6653 9.94382 14.6547 9.36782 14.6547C8.89849 14.6547 8.39715 14.6867 7.86382 14.7507C7.33049 14.7933 6.88249 14.8467 6.51982 14.9107Z" fill="white"/>
</svg>
